<svg xmlns="http://www.w3.org/2000/svg" width="246" height="94" viewBox="0 0 246 94">
    <defs>
        <clipPath id="clip-path">
            <path id="사각형_3541" data-name="사각형 3541" style="fill:none" d="M0 0h244.186v93.372H0z"/>
        </clipPath>
        <style>
            .cls-4{fill:#0079c7}.cls-5{fill:#e71618}
        </style>
    </defs>
    <g id="다날" transform="translate(-391 -766)">
        <g id="다날-2" data-name="다날" transform="translate(391.361 766.234)">
            <g id="그룹_2312" data-name="그룹 2312" style="clip-path:url(#clip-path)">
                <path id="패스_18603" data-name="패스 18603" class="cls-4" d="M228.936 60.52a5.111 5.111 0 0 0-5.162 3.623l-10.065 41.973h8.971c2.091-.029 3.016-.626 3.441-2.5l10.332-43.096z" transform="translate(-47.005 -13.311)"/>
                <path id="패스_18604" data-name="패스 18604" class="cls-4" d="M141.308 87.9c-.713 3.006-5.12 21.618-5.12 21.618l5.6.009v-.02c3.168 0 6.227-1.773 6.886-4.455 0 0 1.8-7.366 3.887-15.823s-3.226-12.79-12.634-12.79h-23.485c-1.05 0-1.285 1.2-.229 1.668 2.615 1.163 3.074 2.409 2.546 4.545l-6.409 26.988 5.606.009v-.019c3.167 0 6.226-1.773 6.885-4.454l5.159-21c.329-1.176.75-1.437 1.9-1.437h5.577c2.928 0 4.543 2.152 3.833 5.158" transform="translate(-24.711 -16.812)"/>
                <path id="패스_18605" data-name="패스 18605" class="cls-5" d="M28.187 66.386H4.078c-1.3 0-1.577 1.481-.268 2.059 3.242 1.438 3.82 2.977 3.19 5.612L.048 103.091c-.262 2.025.459 4.3 4.817 4.3l-.032.012h14.731c15.89 0 27.151-8.431 29.843-19.5 2.479-10.179-3.072-21.52-21.221-21.52m7.857 21.959c-2.764 11.788-14.117 13.5-20.879 13.5h-1.08L21 72.818h3.761c10.978 0 13.039 8.035 11.278 15.526" transform="translate(0 -14.601)"/>
                <path id="패스_18606" data-name="패스 18606" class="cls-5" d="M86.912 75.8c-12.734 0-17.724 5-18.926 10.411h8.724a1.581 1.581 0 0 0 1.59-.631 9.78 9.78 0 0 1 8.361-4.443c2.764 0 3.829 1.5 3.383 3.357-.553 2.313-2.222 3.435-6.924 4.644-9.283 2.346-18.1 4.949-19.664 11.493-1.153 4.817 1.28 9.415 10.952 9.415 2.687 0 7.762-1.1 10.975-4.177h.176s.318 3.264 5.574 3.61l4.041.008 5.48-22.885c1.173-4.233 1.768-10.8-13.746-10.8m-7.644 28.52c-5.3.96-6.755-4.988-.212-7.792a90.711 90.711 0 0 1 9.38-3.43c-.539 2.13-1.966 9.924-9.164 11.227" transform="translate(-13.9 -16.673)"/>
                <path id="패스_18607" data-name="패스 18607" class="cls-4" d="M189.051 75.8c-12.735 0-17.725 5-18.927 10.411h8.724a1.583 1.583 0 0 0 1.6-.634 9.782 9.782 0 0 1 8.361-4.443c2.762 0 3.829 1.5 3.382 3.357-.553 2.313-2.221 3.435-6.921 4.644-9.287 2.346-18.1 4.949-19.667 11.493-1.153 4.817 1.28 9.415 10.953 9.415 2.687 0 7.762-1.1 10.976-4.177h.176s.316 3.264 5.575 3.61l4.038.008L202.8 86.6c1.173-4.233 1.77-10.8-13.745-10.8m-7.645 28.52c-5.3.96-6.755-4.988-.211-7.792a90.794 90.794 0 0 1 9.377-3.435c-.539 2.13-1.966 9.924-9.166 11.227" transform="translate(-36.364 -16.673)"/>
                <path id="패스_18608" data-name="패스 18608" class="cls-5" d="M220.832 15.187a26.965 26.965 0 0 0-3.618.089c-.778.118 3.183 7.543 9.425 9.891a21.509 21.509 0 0 0-2.87.917c-.585.273 3.039 6.284 9.528 6.02a17.082 17.082 0 0 0-2.339 1.183c-.456.31 4.793 4.971 11.26 3.32 8.052 13.78 8.479 29.35 6.844 37.515 38.913-16.894 21.735-59.251-28.23-58.935" transform="translate(-47.754 -3.335)"/>
                <path id="패스_18609" data-name="패스 18609" class="cls-4" d="M270.5.074c-1.1.1.956 6.5 7.075 10.631 0 .016.008.03.012.046a50.058 50.058 0 0 0-5.113-1c-1.073-.108-.25 6.772 6.052 11.067v.012a24.564 24.564 0 0 0-5.529-.559c-.515.025.276 4.272 4.437 8.362-3.436 16.063-13.68 33.441-19.357 42.16C302.318 52.451 321.467-2.288 270.5.074" transform="translate(-56.762)"/>
                <path id="패스_18610" data-name="패스 18610" d="M276.348 42.276c-4.158 14.76-13.109 29.87-18.277 37.807 20.433-8.87 25.4-24.758 18.277-37.807" transform="translate(-56.762 -9.298)" style="fill:#192481"/>
            </g>
        </g>
    </g>
</svg>
